<?xml version="1.0" standalone="no"?>
<!DOCTYPE svg PUBLIC "-//W3C//DTD SVG 20010904//EN"
 "http://www.w3.org/TR/2001/REC-SVG-20010904/DTD/svg10.dtd">
<svg version="1.0" xmlns="http://www.w3.org/2000/svg"
 width="1442.000000pt" height="2051.000000pt" viewBox="0 0 1442.000000 2051.000000"
 preserveAspectRatio="xMidYMid meet">

<g transform="translate(0.000000,2051.000000) scale(0.100000,-0.100000)"
fill="#000000" stroke="none">
<path d="M7090 20394 c-743 -52 -1396 -357 -1945 -908 -471 -474 -811 -1090
-980 -1780 -59 -240 -98 -499 -111 -723 l-7 -123 -1542 -2 -1541 -3 -59 -30
c-71 -36 -118 -94 -141 -173 -17 -55 -10 -215 200 -4872 236 -5231 219 -4936
291 -5157 66 -205 164 -371 309 -522 200 -207 418 -319 709 -362 129 -18 233
-19 4917 -19 5014 0 4880 -1 5065 40 491 108 897 535 989 1042 9 46 20 139 26
208 5 69 114 2257 241 4863 225 4593 232 4740 216 4791 -21 67 -81 136 -144
167 l-48 24 -1542 3 -1542 2 -5 43 c-3 23 -8 85 -11 137 -9 144 -42 367 -81
546 -302 1412 -1309 2501 -2548 2754 -199 41 -539 66 -716 54z m495 -879 c542
-93 1057 -432 1425 -940 310 -428 514 -993 555 -1535 3 -41 8 -99 11 -127 l5
-53 -2333 0 -2333 0 3 57 c24 550 197 1101 480 1538 205 316 485 597 774 777
187 116 447 223 653 267 239 52 517 57 760 16z m-5 -4499 c469 -58 910 -191
1305 -395 290 -149 416 -236 431 -296 9 -37 -28 -111 -160 -318 -115 -181
-120 -187 -163 -187 -40 0 -46 3 -178 85 -462 288 -951 441 -1513 475 -744 44
-1370 -321 -1537 -895 -91 -315 -25 -630 189 -895 154 -190 431 -382 761 -525
164 -72 235 -98 520 -195 1500 -508 2200 -1051 2376 -1842 30 -135 37 -447 15
-626 -59 -458 -247 -838 -568 -1148 -263 -254 -567 -415 -983 -519 -285 -72
-436 -90 -740 -90 -281 0 -403 10 -670 55 -375 63 -745 179 -1080 339 -204 98
-428 241 -688 439 -111 85 -147 123 -147 158 0 28 273 442 321 487 35 32 81
36 121 9 14 -9 64 -48 110 -85 96 -79 322 -231 455 -306 506 -286 1130 -445
1608 -410 339 24 617 95 865 219 353 177 589 448 677 778 23 84 26 118 27 257
1 171 -10 241 -59 371 -148 393 -532 729 -1113 974 -67 28 -240 90 -384 139
-525 177 -1173 437 -1343 539 -695 415 -1036 939 -1035 1587 2 955 793 1718
1905 1835 117 13 530 4 675 -14z"/>
<path d="M955 4510 c-223 -47 -398 -142 -541 -292 -320 -337 -291 -821 67
-1127 158 -134 323 -212 744 -353 132 -44 277 -97 322 -118 190 -88 324 -204
390 -337 37 -76 38 -79 38 -193 0 -112 -1 -117 -37 -193 -87 -182 -278 -302
-544 -342 -125 -19 -171 -19 -300 0 -226 34 -452 126 -662 269 -71 48 -122 76
-135 74 -14 -2 -48 -44 -104 -126 -46 -68 -83 -129 -83 -135 0 -35 230 -198
386 -273 305 -146 699 -207 1002 -155 270 46 439 127 598 285 121 121 185 232
230 403 14 52 18 104 18 223 0 141 -2 162 -27 235 -39 118 -91 199 -192 301
-101 102 -211 178 -371 258 -142 71 -224 103 -484 191 -311 105 -441 169 -552
273 -201 187 -196 453 11 644 114 106 253 158 436 165 249 10 460 -51 765
-222 25 -14 50 -25 55 -25 33 0 185 214 185 260 0 36 -46 71 -190 144 -171 87
-348 142 -553 171 -145 21 -360 18 -472 -5z"/>
<path d="M2710 4511 c-14 -27 -14 -3275 0 -3302 10 -18 23 -19 173 -19 114 0
167 4 175 12 9 9 12 151 12 578 0 637 1 648 71 789 102 207 308 332 544 332
269 0 488 -155 579 -411 l31 -85 5 -605 5 -605 175 0 175 0 0 645 0 645 -29
85 c-59 175 -135 298 -257 416 -169 162 -350 247 -587 274 -215 25 -462 -36
-643 -160 -32 -22 -61 -40 -64 -40 -3 0 -5 324 -5 719 0 396 -3 726 -6 735 -5
14 -30 16 -175 16 -156 0 -169 -1 -179 -19z"/>
<path d="M5920 3279 c-258 -25 -528 -167 -693 -364 -159 -188 -239 -410 -239
-660 0 -478 311 -871 790 -996 100 -27 300 -36 413 -19 479 70 850 455 888
923 53 657 -492 1183 -1159 1116z m286 -369 c129 -32 217 -82 315 -180 70 -69
94 -101 127 -170 23 -47 49 -112 57 -145 20 -78 20 -242 0 -320 -48 -189 -183
-355 -356 -438 -211 -102 -420 -102 -629 0 -228 112 -373 343 -372 598 0 200
70 358 221 497 166 153 412 215 637 158z"/>
<path d="M10820 3280 c-224 -22 -434 -125 -596 -292 -176 -180 -274 -394 -292
-638 -32 -433 191 -829 573 -1015 134 -66 230 -91 400 -104 263 -21 505 20
700 117 158 78 265 163 265 209 0 43 -147 263 -175 263 -9 0 -39 -19 -68 -43
-287 -234 -726 -275 -1022 -96 -144 86 -278 267 -310 417 l-7 32 777 0 c708 0
779 1 805 17 47 27 53 50 48 175 -12 243 -109 471 -279 653 -206 220 -516 336
-819 305z m312 -382 c102 -38 175 -85 253 -164 65 -64 129 -164 150 -231 l6
-23 -611 0 -612 0 7 28 c3 15 20 54 36 88 76 153 221 269 399 319 88 24 286
15 372 -17z"/>
<path d="M13197 3279 c-504 -53 -887 -497 -887 -1030 0 -84 28 -242 59 -332
108 -314 391 -574 715 -657 218 -55 547 -43 768 30 152 50 361 178 393 240 18
35 14 45 -62 165 -51 79 -91 125 -109 125 -7 0 -39 -23 -71 -50 -72 -63 -232
-143 -338 -171 -46 -11 -129 -23 -195 -26 -309 -15 -552 97 -701 324 -44 69
-89 175 -89 215 0 17 35 18 779 18 765 0 779 0 804 20 37 30 50 79 42 163 -15
172 -50 299 -117 428 -125 245 -361 438 -619 509 -66 17 -239 42 -279 38 -8 0
-50 -4 -93 -9z m258 -364 c184 -47 354 -182 433 -345 l42 -85 -612 -3 c-336
-1 -613 0 -615 2 -8 8 46 126 85 183 78 115 195 199 332 240 92 27 245 31 335
8z"/>
<path d="M7465 3268 c-3 -7 -4 -717 -3 -1578 l3 -1565 170 0 170 0 5 663 5
663 65 -46 c103 -73 180 -112 292 -149 370 -124 777 -34 1060 232 234 221 352
539 318 852 -45 405 -299 734 -677 876 -127 48 -197 59 -373 59 -149 0 -175
-3 -264 -28 -125 -35 -240 -89 -339 -161 -43 -31 -80 -56 -82 -56 -3 0 -6 55
-7 123 l-3 122 -168 3 c-128 2 -169 0 -172 -10z m1255 -377 c200 -69 357 -223
432 -423 26 -69 32 -102 36 -195 9 -213 -50 -366 -197 -514 -139 -138 -293
-203 -486 -203 -120 0 -199 19 -310 74 -181 89 -308 244 -361 440 -27 99 -25
255 5 350 75 244 262 425 500 485 87 22 298 14 381 -14z"/>
</g>
</svg>
